<?xml version="1.0" standalone="no"?>
<!DOCTYPE svg PUBLIC "-//W3C//DTD SVG 20010904//EN"
 "http://www.w3.org/TR/2001/REC-SVG-20010904/DTD/svg10.dtd">
<svg version="1.0" xmlns="http://www.w3.org/2000/svg"
 width="251.000000pt" height="251.000000pt" viewBox="0 0 251.000000 251.000000"
 preserveAspectRatio="xMidYMid meet">
<metadata>
Created by potrace 1.11, written by Peter Selinger 2001-2013
</metadata>
<g transform="translate(0.000000,251.000000) scale(0.100000,-0.100000)"
fill="#000000" stroke="none">
<path d="M1216 2484 c-12 -12 -15 -31 -11 -87 2 -40 7 -128 10 -197 4 -69 8
-150 10 -180 2 -30 6 -116 10 -190 10 -185 10 -188 16 -194 3 -3 5 14 6 37 1
23 4 83 7 132 3 50 8 137 11 195 3 58 8 130 10 160 15 203 16 311 5 325 -16
20 -54 19 -74 -1z"/>
<path d="M1048 2479 c-26 -15 -23 -41 27 -280 25 -118 62 -292 82 -386 20 -95
40 -173 45 -173 5 0 7 3 5 8 -3 4 -8 45 -12 92 -3 47 -8 92 -10 100 -2 8 -7
53 -10 100 -4 47 -8 92 -10 100 -1 8 -6 51 -9 95 -4 44 -9 91 -11 105 -4 25
-13 113 -20 185 -5 54 -38 77 -77 54z"/>
<path d="M1396 2474 c-9 -8 -16 -25 -17 -37 0 -12 -2 -29 -4 -37 -1 -8 -5 -46
-9 -85 -4 -38 -9 -86 -11 -105 -2 -19 -7 -62 -10 -95 -3 -33 -10 -96 -15 -140
-5 -44 -12 -107 -15 -140 -3 -33 -9 -93 -14 -133 -7 -72 2 -88 14 -22 3 19 17
82 30 140 13 58 27 119 30 135 13 68 17 83 31 145 8 36 28 128 45 204 27 127
28 141 14 163 -18 27 -47 30 -69 7z"/>
<path d="M870 2435 c-7 -8 -12 -25 -12 -38 0 -18 168 -471 201 -542 5 -11 29
-71 52 -132 24 -62 44 -111 46 -109 3 3 -104 419 -178 696 -23 87 -39 130 -48
131 -3 0 -16 2 -27 5 -12 2 -27 -3 -34 -11z"/>
<path d="M1578 2439 c-15 -8 -39 -70 -53 -135 -2 -11 -22 -86 -44 -169 -119
-437 -147 -545 -144 -545 4 0 -8 -31 167 419 80 205 146 381 146 392 0 10 -10
25 -22 33 -26 19 -27 19 -50 5z"/>
<path d="M700 2361 c-5 -11 -10 -26 -10 -33 0 -7 37 -76 81 -153 45 -77 92
-158 104 -180 87 -153 255 -438 255 -432 0 3 -11 30 -24 59 -13 29 -80 181
-149 338 -179 406 -178 404 -190 412 -22 14 -56 8 -67 -11z"/>
<path d="M1737 2368 c-9 -7 -64 -121 -122 -253 -59 -132 -113 -253 -120 -270
-34 -73 -107 -241 -112 -255 -16 -47 407 671 427 725 8 20 6 29 -10 45 -23 23
-40 25 -63 8z"/>
<path d="M568 2283 c-19 -5 -34 -44 -25 -65 6 -15 499 -623 529 -653 11 -11
-5 18 -35 65 -301 470 -402 628 -415 643 -15 17 -22 19 -54 10z"/>
<path d="M1885 2267 c-13 -12 -94 -132 -181 -267 -86 -135 -186 -290 -222
-345 -36 -55 -68 -105 -71 -110 -13 -23 29 26 202 239 67 82 171 208 230 280
60 72 113 141 118 154 20 52 -34 86 -76 49z"/>
<path d="M416 2154 c-34 -33 -27 -42 149 -200 66 -59 140 -126 165 -148 25
-23 104 -93 175 -156 72 -63 134 -119 138 -125 6 -7 7 -6 5 1 -3 9 -83 103
-153 178 -11 12 -69 78 -130 146 -60 69 -112 127 -115 130 -3 3 -43 47 -89 98
-86 96 -112 109 -145 76z"/>
<path d="M1978 2113 c-30 -32 -97 -105 -148 -163 -52 -58 -108 -121 -125 -140
-121 -134 -232 -259 -249 -280 l-21 -25 30 26 c49 42 106 92 170 150 114 102
220 196 330 294 61 54 116 105 123 113 27 35 5 82 -41 82 -7 0 -38 -26 -69
-57z"/>
<path d="M306 2028 c-9 -5 -16 -22 -16 -39 0 -33 6 -38 675 -465 l70 -45 -45
39 c-39 34 -494 407 -597 489 -37 30 -61 36 -87 21z"/>
<path d="M2093 1988 c-76 -58 -601 -484 -623 -505 -14 -14 244 149 521 329 63
40 137 88 166 107 56 35 70 59 54 89 -20 38 -48 33 -118 -20z"/>
<path d="M215 1876 c-21 -15 -23 -65 -4 -77 8 -5 158 -72 334 -151 176 -78
353 -156 393 -175 39 -18 72 -31 72 -29 0 3 -30 22 -67 44 -142 82 -443 257
-556 324 -130 76 -147 83 -172 64z"/>
<path d="M1877 1671 c-197 -115 -361 -212 -365 -216 -9 -9 9 -2 348 148 430
189 437 193 445 216 10 31 -11 61 -43 60 -16 0 -167 -82 -385 -208z"/>
<path d="M136 1699 c-11 -16 -12 -27 -4 -44 11 -25 7 -24 401 -128 124 -33
211 -51 233 -49 19 2 34 5 32 7 -14 11 -608 235 -625 235 -12 0 -29 -10 -37
-21z"/>
<path d="M2285 1708 c-16 -6 -91 -34 -165 -63 -74 -29 -197 -76 -273 -105 -75
-29 -135 -56 -132 -59 11 -11 93 1 203 30 62 17 120 32 130 34 67 14 295 80
308 89 21 16 24 48 6 69 -17 19 -33 20 -77 5z"/>
<path d="M1201 1614 c0 -11 3 -14 6 -6 3 7 2 16 -1 19 -3 4 -6 -2 -5 -13z"/>
<path d="M1292 1600 c0 -14 2 -19 5 -12 2 6 2 18 0 25 -3 6 -5 1 -5 -13z"/>
<path d="M103 1538 c-17 -22 -23 -47 -13 -53 9 -6 208 -8 310 -5 l45 2 -55 14
c-30 7 -69 15 -85 18 -17 3 -60 12 -95 20 -79 19 -95 20 -107 4z"/>
<path d="M2245 1523 c-175 -38 -181 -41 -100 -43 262 -6 264 -6 268 12 6 21
-12 44 -38 51 -11 2 -69 -6 -130 -20z"/>
<path d="M152 1414 c-47 -19 -64 -54 -66 -134 -1 -51 2 -70 11 -70 16 0 17
-24 2 -49 -20 -31 -1 -69 72 -142 46 -46 72 -81 76 -102 7 -30 7 -38 4 -70 0
-8 -13 -19 -28 -26 -38 -18 -79 13 -76 58 1 29 -1 31 -30 31 l-32 0 0 -145 0
-146 35 1 c19 1 47 -2 62 -6 55 -13 112 20 127 73 13 50 5 234 -12 276 -9 21
-42 61 -73 90 -66 61 -87 100 -71 134 5 13 13 24 16 24 52 12 92 -19 86 -66
-2 -21 2 -25 25 -25 34 0 36 9 34 140 -2 169 1 157 -41 158 -21 0 -50 2 -65 5
-14 2 -40 -2 -56 -9z"/>
<path d="M352 1313 c2 -101 2 -103 25 -103 l23 0 0 -255 c0 -281 4 -301 60
-330 37 -19 90 -19 118 1 49 34 52 55 52 329 l0 255 25 0 c24 0 24 1 24 100 0
71 -3 100 -12 101 -35 4 -114 5 -128 1 -13 -3 -16 -20 -15 -103 1 -96 2 -99
24 -99 22 0 22 0 22 -180 0 -169 -1 -180 -21 -199 -24 -22 -58 -20 -76 6 -9
12 -13 68 -13 194 0 177 0 178 23 181 21 3 22 8 24 101 2 53 -1 98 -5 98 -4 1
-39 2 -79 4 l-72 2 1 -104z"/>
<path d="M721 1405 c-4 -5 -7 -50 -6 -100 2 -88 2 -90 26 -90 l24 0 0 -189 c0
-103 -2 -191 -5 -196 -3 -4 -14 -9 -24 -11 -18 -4 -19 -13 -19 -97 0 -51 2
-95 4 -97 6 -5 63 -7 170 -6 l95 1 0 158 -1 157 -31 3 c-28 3 -30 1 -28 -28 2
-33 14 -55 14 -27 0 10 5 17 10 17 14 0 12 -16 -6 -51 -14 -28 -18 -30 -67
-27 l-52 3 -1 193 c0 199 0 199 39 193 4 0 7 45 7 102 l0 103 -71 0 c-39 -1
-74 -5 -78 -11z m29 -669 c0 -3 -4 -8 -10 -11 -5 -3 -10 -1 -10 4 0 6 5 11 10
11 6 0 10 -2 10 -4z"/>
<path d="M1025 1253 l0 -163 31 0 30 0 -1 60 c-1 59 -1 60 26 60 l28 0 -1
-195 0 -195 -24 0 c-24 0 -24 -1 -24 -100 l0 -101 77 3 77 3 0 95 c1 91 0 95
-21 98 -19 3 -23 10 -24 40 -1 42 -1 308 0 335 1 11 9 17 26 17 27 0 29 -7 25
-82 -1 -36 0 -38 29 -38 l31 0 0 124 c0 71 -4 127 -10 131 -11 7 -9 55 2 55 4
0 8 3 8 8 0 4 -64 7 -143 7 l-143 0 1 -162z"/>
<path d="M1474 1411 c3 -4 -12 -113 -33 -242 -47 -277 -53 -320 -54 -336 0 -7
-8 -13 -18 -13 -16 0 -18 -11 -17 -100 l0 -100 72 0 71 0 1 101 1 101 -25 -5
c-29 -6 -52 1 -52 15 0 5 4 7 9 4 5 -3 14 13 19 37 11 42 12 43 57 43 38 1 46
-3 50 -20 12 -58 9 -76 -15 -76 -18 0 -20 -7 -19 -100 l0 -100 74 0 74 0 0
100 c0 91 -2 100 -19 100 -10 0 -21 8 -24 18 -5 16 -8 31 -22 137 -3 28 -8 60
-9 72 -2 13 -7 42 -11 65 -11 63 -11 66 -24 153 -6 44 -12 89 -14 100 -2 11
-4 28 -5 38 -1 13 -10 17 -37 17 -19 0 -33 -4 -30 -9z m52 -309 c3 -26 9 -48
13 -50 3 -1 5 -20 3 -41 -3 -30 -8 -38 -20 -36 -10 2 -24 4 -34 4 -10 1 -15 8
-13 19 2 9 9 57 16 106 13 95 22 94 35 -2z"/>
<path d="M1723 1410 c-16 -4 -18 -17 -18 -100 0 -91 1 -95 23 -98 12 -2 22
-11 23 -20 0 -20 0 -329 0 -354 -1 -11 -9 -18 -21 -18 -12 0 -20 -7 -21 -17
-4 -115 -4 -165 1 -172 5 -10 42 -14 108 -12 l42 1 0 100 c0 99 0 100 -24 100
l-23 0 -1 138 c0 152 -5 152 58 10 29 -68 50 -87 50 -47 0 18 2 19 15 9 15
-13 21 -61 8 -73 -3 -4 -13 -1 -21 6 -13 10 -14 9 -3 -12 10 -18 10 -25 1 -31
-10 -6 -13 -57 -11 -167 l1 -33 74 0 74 0 4 68 c5 105 0 130 -25 134 -22 3
-22 5 -22 193 0 189 0 190 23 193 21 3 22 7 22 105 l0 103 -75 0 -75 1 -1 -71
c0 -39 -1 -86 -2 -104 -2 -27 1 -32 15 -28 10 2 21 -1 25 -7 8 -13 11 -267 3
-267 -6 0 -110 245 -110 260 0 6 5 10 10 10 6 0 10 40 10 100 0 111 7 102 -77
104 -23 1 -50 -1 -60 -4z"/>
<path d="M2227 1413 c-3 -4 -8 -33 -11 -64 -4 -31 -9 -67 -12 -80 -2 -13 -6
-40 -9 -59 -3 -19 -7 -46 -10 -60 -3 -14 -7 -41 -10 -60 -3 -19 -7 -44 -9 -55
-2 -11 -9 -56 -16 -100 -15 -103 -18 -113 -36 -117 -15 -3 -19 -50 -14 -183 0
-13 13 -15 72 -13 l71 3 1 98 1 98 -34 -3 c-22 -2 -36 2 -39 11 -2 8 0 11 6 7
9 -5 24 30 26 63 1 10 15 16 40 19 47 4 66 -14 66 -65 0 -26 -4 -33 -20 -33
-19 0 -20 -7 -20 -100 l0 -100 73 0 73 0 0 100 c-1 97 -1 100 -23 100 -13 0
-22 3 -21 8 1 6 -7 66 -18 126 -2 10 -6 44 -10 75 -3 31 -8 65 -10 76 -2 11
-8 43 -13 70 -5 28 -12 75 -16 105 -13 119 -18 135 -47 138 -14 2 -28 0 -31
-5z m45 -308 c3 -27 11 -51 17 -53 6 -2 8 -9 4 -15 -4 -6 -7 -21 -7 -32 -1
-22 -5 -25 -42 -25 -25 0 -25 2 -18 43 14 81 16 92 18 117 7 56 7 56 15 35 5
-11 11 -42 13 -70z"/>
<path d="M630 551 c0 -6 4 -13 10 -16 6 -3 7 1 4 9 -7 18 -14 21 -14 7z"/>
<path d="M790 550 c0 -5 5 -10 11 -10 5 0 7 5 4 10 -3 6 -8 10 -11 10 -2 0 -4
-4 -4 -10z"/>
<path d="M393 525 c0 -8 4 -12 9 -9 5 3 6 10 3 15 -9 13 -12 11 -12 -6z"/>
<path d="M1240 530 c-9 -6 -10 -10 -3 -10 6 0 15 5 18 10 8 12 4 12 -15 0z"/>
<path d="M1870 528 c0 -4 4 -8 9 -8 6 0 12 4 15 8 3 5 -1 9 -9 9 -8 0 -15 -4
-15 -9z"/>
<path d="M1934 519 c-3 -6 -2 -15 3 -20 5 -5 9 -1 9 11 0 23 -2 24 -12 9z"/>
<path d="M746 509 c4 -8 30 -6 38 2 3 3 -5 5 -19 5 -13 0 -22 -3 -19 -7z"/>
<path d="M905 490 c-3 -6 1 -7 9 -4 18 7 21 14 7 14 -6 0 -13 -4 -16 -10z"/>
<path d="M1455 490 c-3 -5 -1 -10 4 -10 6 0 11 5 11 10 0 6 -2 10 -4 10 -3 0
-8 -4 -11 -10z"/>
<path d="M1760 490 c8 -5 20 -10 25 -10 6 0 3 5 -5 10 -8 5 -19 10 -25 10 -5
0 -3 -5 5 -10z"/>
<path d="M515 479 c-4 -6 -5 -12 -2 -15 2 -3 7 2 10 11 7 17 1 20 -8 4z"/>
<path d="M1356 452 c-3 -5 1 -9 9 -9 8 0 12 4 9 9 -3 4 -7 8 -9 8 -2 0 -6 -4
-9 -8z"/>
<path d="M1229 433 c-13 -16 -12 -17 4 -4 16 13 21 21 13 21 -2 0 -10 -8 -17
-17z"/>
<path d="M1490 446 c0 -2 8 -10 18 -17 15 -13 16 -12 3 4 -13 16 -21 21 -21
13z"/>
<path d="M1794 430 c0 -13 4 -16 10 -10 7 7 7 13 0 20 -6 6 -10 3 -10 -10z"/>
<path d="M2035 439 c-4 -6 -5 -12 -2 -15 2 -3 7 2 10 11 7 17 1 20 -8 4z"/>
<path d="M1990 428 c0 -4 4 -8 9 -8 6 0 12 4 15 8 3 5 -1 9 -9 9 -8 0 -15 -4
-15 -9z"/>
<path d="M655 410 c-3 -5 -1 -10 4 -10 6 0 11 5 11 10 0 6 -2 10 -4 10 -3 0
-8 -4 -11 -10z"/>
<path d="M980 410 c-8 -5 -10 -10 -5 -10 6 0 17 5 25 10 8 5 11 10 5 10 -5 0
-17 -5 -25 -10z"/>
<path d="M1816 383 c-6 -14 -5 -15 5 -6 7 7 10 15 7 18 -3 3 -9 -2 -12 -12z"/>
<path d="M1990 395 c0 -7 30 -13 34 -7 3 4 -4 9 -15 9 -10 1 -19 0 -19 -2z"/>
<path d="M471 377 c-8 -10 -7 -14 2 -14 8 0 14 6 14 14 0 7 -1 13 -2 13 -2 0
-8 -6 -14 -13z"/>
<path d="M1114 372 c4 -3 14 -7 22 -8 9 -1 13 0 10 4 -4 3 -14 7 -22 8 -9 1
-13 0 -10 -4z"/>
<path d="M1393 365 c0 -8 4 -12 9 -9 5 3 6 10 3 15 -9 13 -12 11 -12 -6z"/>
<path d="M1505 369 c-3 -4 2 -6 10 -5 21 3 28 13 10 13 -9 0 -18 -4 -20 -8z"/>
<path d="M1875 359 c-4 -6 -5 -12 -2 -15 2 -3 7 2 10 11 7 17 1 20 -8 4z"/>
<path d="M833 345 c0 -8 4 -12 9 -9 5 3 6 10 3 15 -9 13 -12 11 -12 -6z"/>
<path d="M993 325 c0 -8 4 -12 9 -9 5 3 6 10 3 15 -9 13 -12 11 -12 -6z"/>
<path d="M1655 330 c3 -5 8 -10 11 -10 2 0 4 5 4 10 0 6 -5 10 -11 10 -5 0 -7
-4 -4 -10z"/>
<path d="M935 321 c-3 -5 -2 -12 3 -15 5 -3 9 1 9 9 0 17 -3 19 -12 6z"/>
<path d="M633 305 c0 -8 4 -12 9 -9 4 3 8 9 8 15 0 5 -4 9 -8 9 -5 0 -9 -7 -9
-15z"/>
<path d="M1096 303 c-6 -14 -5 -15 5 -6 7 7 10 15 7 18 -3 3 -9 -2 -12 -12z"/>
<path d="M1855 290 c3 -5 8 -10 11 -10 2 0 4 5 4 10 0 6 -5 10 -11 10 -5 0 -7
-4 -4 -10z"/>
<path d="M766 271 c-3 -4 6 -7 19 -7 14 0 22 2 19 5 -8 8 -34 10 -38 2z"/>
<path d="M1726 272 c-3 -5 1 -9 9 -9 8 0 12 4 9 9 -3 4 -7 8 -9 8 -2 0 -6 -4
-9 -8z"/>
<path d="M1933 261 c0 -11 5 -18 9 -15 4 3 5 11 1 19 -7 21 -12 19 -10 -4z"/>
<path d="M1233 240 c-1 -11 2 -22 6 -24 4 -3 7 4 6 14 -2 27 -10 33 -12 10z"/>
<path d="M1385 250 c-3 -6 1 -7 9 -4 18 7 21 14 7 14 -6 0 -13 -4 -16 -10z"/>
<path d="M590 229 c0 -5 5 -7 10 -4 6 3 10 8 10 11 0 2 -4 4 -10 4 -5 0 -10
-5 -10 -11z"/>
<path d="M955 231 c-3 -5 -2 -12 3 -15 5 -3 9 1 9 9 0 17 -3 19 -12 6z"/>
<path d="M1536 208 c3 -5 10 -6 15 -3 13 9 11 12 -6 12 -8 0 -12 -4 -9 -9z"/>
<path d="M890 151 c0 -6 4 -13 10 -16 6 -3 7 1 4 9 -7 18 -14 21 -14 7z"/>
<path d="M1759 143 c-13 -16 -12 -17 4 -4 16 13 21 21 13 21 -2 0 -10 -8 -17
-17z"/>
<path d="M1433 125 c0 -8 4 -12 9 -9 5 3 6 10 3 15 -9 13 -12 11 -12 -6z"/>
<path d="M1256 117 c3 -10 9 -15 12 -12 3 3 0 11 -7 18 -10 9 -11 8 -5 -6z"/>
<path d="M926 112 c-3 -5 1 -9 9 -9 8 0 12 4 9 9 -3 4 -7 8 -9 8 -2 0 -6 -4
-9 -8z"/>
<path d="M1230 87 c0 -2 6 -10 14 -16 11 -9 16 -9 22 1 4 7 4 10 -1 6 -4 -4
-14 -3 -22 3 -7 6 -13 9 -13 6z"/>
<path d="M1273 45 c0 -8 4 -12 9 -9 5 3 6 10 3 15 -9 13 -12 11 -12 -6z"/>
</g>
</svg>
